<svg id="encode-icon.svg" xmlns="http://www.w3.org/2000/svg" width="64" height="64.5" viewBox="0 0 64 64.5">
  <defs>
    <style>
      .cls-1 {
        fill: #76b900;
      }

      .cls-1, .cls-2 {
        fill-rule: evenodd;
      }

      .cls-2 {
        fill: none;
      }
    </style>
  </defs>
  <path id="_Compound_Path_" data-name="&lt;Compound Path&gt;" class="cls-1" d="M5499.66,697.018h-0.49l-9.33-5.374h-5.34l-9.33-5.375h-5.34l-9.33-5.375h-6.18V730.61h6.18l9.33-5.375h5.34l9.33-5.375h5.34l9.33-5.374H5505V697.018h-5.34Zm-1.33,6.718V710.6l-2.11-4.85,2.11-4.85v2.834Zm-37.34,14.781V687.781l3.9,17.971-3.9,17.971v-5.206Zm22.67-4.031-2.53-8.734,2.53-8.733v17.467Zm1.33-12.093v-4.031h4v4.031h-4Zm4,1.343v4.031h-4v-4.031h4Zm-4,5.375h4v4.031h-4v-4.031Zm5.34,4.031V695.528l4.44,10.224-4.44,10.224v-2.834Zm0.75-19.236,7.06,4.067-2.65,6.1Zm-2.09,3.112h-4v-4.031h4v4.031Zm-8.55,6.335-4.35-15,7.45,4.287Zm-10.12,4.414v-4.031h4v4.031h-4Zm4,1.344v4.031h-4v-4.031h4Zm-4-6.718v-4.031h4v4.031h-4Zm0-5.375v-4.031h4v4.031h-4Zm-1.33,0v21.33l-2.74-12.6,2.74-12.6v3.862Zm1.33,17.468h4v4.031h-4v-4.031Zm5.34,4.031V691.645l4.08,14.108-4.08,14.107h0v-1.343Zm-1.34-26.873h-4v-4.031h4v4.031Zm-8.75,10.963-4.28-19.707,7.61,4.379Zm0,6.29,3.33,15.328-7.61,4.379Zm4.75,10.963h4v4.031h-4V719.86Zm10.12-11.708,3.1,10.716-7.45,4.287Zm4.55,6.334h4v4.031h-4v-4.031Zm10.5-7.058,2.65,6.1-7.06,4.068Zm-39.84-25.19h4v4.031h-4v-4.031Zm0,5.375h4v4.031h-4v-4.031Zm0,5.374h4v4.031h-4v-4.031Zm0,5.375h4v4.031h-4v-4.031Zm0,5.374h4v4.031h-4v-4.031Zm0,5.375h4v4.031h-4v-4.031Zm0,5.375h4v4.031h-4v-4.031Zm0,5.374h4v4.031h-4V719.86Zm0,5.375h4v4.031h-4v-4.031Zm48.01-12.093h-4v-4.031h4v4.031Zm0-5.375h-4v-4.031h4v4.031Zm-4-5.374v-4.031h4v4.031h-4Z" transform="translate(-5447 -673.5)"/>
  <path id="_Rectangle_" data-name="&lt;Rectangle&gt;" class="cls-2" d="M5446.99,673.5H5511V738h-64.01V673.5Z" transform="translate(-5447 -673.5)"/>
</svg>
