<svg id="game-ready-driver-icon.svg" xmlns="http://www.w3.org/2000/svg" width="64" height="64" viewBox="0 0 64 64">
  <defs>
    <style>
      .cls-1 {
        fill: #76b900;
        fill-rule: evenodd;
      }

      .cls-2 {
        fill: none;
      }
    </style>
  </defs>
  <path id="_Compound_Path_" data-name="&lt;Compound Path&gt;" class="cls-1" d="M5478,466a22,22,0,1,0,22,22A22.025,22.025,0,0,0,5478,466Zm0,42.667A20.667,20.667,0,1,1,5498.67,488,20.69,20.69,0,0,1,5478,508.667Zm17.44-38.11A24.654,24.654,0,1,0,5502.67,488,24.5,24.5,0,0,0,5495.44,470.557ZM5494.5,504.5a23.344,23.344,0,1,1,6.83-16.5A23.192,23.192,0,0,1,5494.5,504.5Z" transform="translate(-5446 -456)"/>
  <path id="_Compound_Path_2" data-name="&lt;Compound Path&gt;" class="cls-1" d="M5477.95,504.667h0a0.984,0.984,0,0,1-.75-0.354l-10.31-12.23a0.837,0.837,0,0,1-.15-0.909,0.853,0.853,0,0,1,.8-0.471h4.47v-2.429a1.042,1.042,0,0,1,1.05-1.032h2.47v-2.336a1.039,1.039,0,0,1,1.04-1.032h2.47v-2.336a1.042,1.042,0,0,1,1.05-1.032h2.75a1.039,1.039,0,0,1,1.04,1.032V490.7h4.58a0.853,0.853,0,0,1,.8.473,0.822,0.822,0,0,1-.16.909l-10.4,12.23A0.979,0.979,0,0,1,5477.95,504.667Zm-9.35-12.631,9.35,11.1,9.45-11.1h-3.8a1.042,1.042,0,0,1-1.05-1.032v-9.165h-2.18v2.336a1.042,1.042,0,0,1-1.05,1.032h-2.46v2.336a1.042,1.042,0,0,1-1.05,1.032h-2.46V491a1.042,1.042,0,0,1-1.05,1.032h-3.7Z" transform="translate(-5446 -456)"/>
  <path id="_Compound_Path_3" data-name="&lt;Compound Path&gt;" class="cls-1" d="M5475.11,484.9h-2.05a1.042,1.042,0,0,1-1.05-1.032V481.9a1.043,1.043,0,0,1,1.05-1.033h2.05a1.043,1.043,0,0,1,1.05,1.033v1.963A1.042,1.042,0,0,1,5475.11,484.9Zm-1.76-1.333h1.47v-1.361h-1.47v1.361Z" transform="translate(-5446 -456)"/>
  <path id="_Compound_Path_4" data-name="&lt;Compound Path&gt;" class="cls-1" d="M5478.62,481.422h-2.05a1.04,1.04,0,0,1-1.04-1.033v-1.962a1.039,1.039,0,0,1,1.04-1.032h2.05a1.042,1.042,0,0,1,1.05,1.032v1.962A1.042,1.042,0,0,1,5478.62,481.422Zm-1.76-1.334h1.48v-1.36h-1.48v1.36Z" transform="translate(-5446 -456)"/>
  <path id="_Compound_Path_5" data-name="&lt;Compound Path&gt;" class="cls-1" d="M5482.13,478.728h-2.04a1.042,1.042,0,0,1-1.05-1.032v-1.963a1.042,1.042,0,0,1,1.05-1.033h2.04a1.042,1.042,0,0,1,1.05,1.033V477.7A1.042,1.042,0,0,1,5482.13,478.728Zm-1.76-1.333h1.48v-1.361h-1.48V477.4Z" transform="translate(-5446 -456)"/>
  <path id="_Compound_Path_6" data-name="&lt;Compound Path&gt;" class="cls-1" d="M5478.62,475.361h-2.05a1.039,1.039,0,0,1-1.04-1.032v-1.963a1.04,1.04,0,0,1,1.04-1.033h2.05a1.043,1.043,0,0,1,1.05,1.033v1.963A1.042,1.042,0,0,1,5478.62,475.361Zm-1.76-1.333h1.48v-1.361h-1.48v1.361Z" transform="translate(-5446 -456)"/>
  <rect id="_Rectangle_" data-name="&lt;Rectangle&gt;" class="cls-2" width="64" height="64"/>
</svg>
