<svg id="gpu-icon.svg" xmlns="http://www.w3.org/2000/svg" width="64" height="64" viewBox="0 0 64 64">
  <defs>
    <style>
      .cls-1 {
        fill: #76b900;
        fill-rule: evenodd;
      }

      .cls-2 {
        fill: none;
      }
    </style>
  </defs>
  <path id="_Compound_Path_" data-name="&lt;Compound Path&gt;" class="cls-1" d="M5481.89,100H5452v44h44V100h-14.11Zm11.44,14.822v14.357l1.34,0.357v13.13h-13.13l-0.36-1.333h-14.36l-0.36,1.333h-13.13V129.535l1.34-.357V114.821l-1.34-.357V101.333h13.13l0.36,1.334h14.36l0.36-1.334h13.13v13.132Zm-34.66-8.155h2.66v2.666h-2.66v-2.666Zm6.66,2.666h-2.66v-2.666h2.66v2.666Zm1.34-2.666h2.66v2.666h-2.66v-2.666Zm6.66,2.666h-2.66v-2.666h2.66v2.666Zm4,0h-2.66v-2.666h2.66v2.666Zm4,0h-2.66v-2.666h2.66v2.666Zm1.34-2.666h2.66v2.666h-2.66v-2.666Zm4,0h2.66v2.666h-2.66v-2.666Zm-28,4h2.66v2.666h-2.66v-2.666Zm6.66,2.666h-2.66v-2.666h2.66v2.666Zm1.34-2.666h2.66v2.666h-2.66v-2.666Zm6.66,2.666h-2.66v-2.666h2.66v2.666Zm4,0h-2.66v-2.666h2.66v2.666Zm4,0h-2.66v-2.666h2.66v2.666Zm1.34-2.666h2.66v2.666h-2.66v-2.666Zm4,0h2.66v2.666h-2.66v-2.666Zm-28,4h2.66v2.666h-2.66v-2.666Zm28,0h2.66v2.666h-2.66v-2.666Zm-28,4h2.66v2.666h-2.66v-2.666Zm28,0h2.66v2.666h-2.66v-2.666Zm-28,4h2.66v2.666h-2.66v-2.666Zm28,0h2.66v2.666h-2.66v-2.666Zm-28,4h2.66v2.666h-2.66v-2.666Zm28,0h2.66v2.666h-2.66v-2.666Zm-28,4h2.66v2.666h-2.66v-2.666Zm4,0h2.66v2.666h-2.66v-2.666Zm4,0h2.66v2.666h-2.66v-2.666Zm4,0h2.66v2.666h-2.66v-2.666Zm4,0h2.66v2.666h-2.66v-2.666Zm4,0h2.66v2.666h-2.66v-2.666Zm4,0h2.66v2.666h-2.66v-2.666Zm4,0h2.66v2.666h-2.66v-2.666Zm-28,4h2.66v2.666h-2.66v-2.666Zm4,0h2.66v2.666h-2.66v-2.666Zm4,0h2.66v2.666h-2.66v-2.666Zm4,0h2.66v2.666h-2.66v-2.666Zm4,0h2.66v2.666h-2.66v-2.666Zm4,0h2.66v2.666h-2.66v-2.666Zm4,0h2.66v2.666h-2.66v-2.666Zm4,0h2.66v2.666h-2.66v-2.666Zm-18.22-9.072a3.492,3.492,0,0,1-4.9.064c-0.9-.9-0.88-1.906-0.88-3.659s-0.02-2.763.88-3.658a3.262,3.262,0,0,1,2.39-.972,3.2,3.2,0,0,1,3.31,2.827h-1.39a1.863,1.863,0,0,0-1.92-1.586,1.819,1.819,0,0,0-1.34.562c-0.45.487-.55,1-0.55,2.827s0.1,2.354.55,2.84a1.806,1.806,0,0,0,1.34.55,1.949,1.949,0,0,0,1.49-.639,2.073,2.073,0,0,0,.46-1.433v-0.512h-1.95V121.63h3.33v1.393A3.418,3.418,0,0,1,5468.45,125.6Zm6.05-8.148h-3.46v9.107h1.38v-3.581h2.08A2.767,2.767,0,1,0,5474.5,117.447Zm-0.08,4.272h-2v-3.032h2A1.519,1.519,0,1,1,5474.42,121.719Zm9.53-4.272h1.38v6.037a3.267,3.267,0,0,1-6.53,0v-6.037h1.38v5.974a1.887,1.887,0,1,0,3.77,0v-5.974Z" transform="translate(-5442 -90)"/>
  <rect id="_Rectangle_" data-name="&lt;Rectangle&gt;" class="cls-2" width="64" height="64"/>
</svg>
