<svg id="media-and-entertainment-icon.svg" xmlns="http://www.w3.org/2000/svg" width="64" height="64.5" viewBox="0 0 64 64.5">
  <defs>
    <style>
      .cls-1 {
        fill: #76b900;
      }

      .cls-1, .cls-2 {
        fill-rule: evenodd;
      }

      .cls-2 {
        fill: none;
      }
    </style>
  </defs>
  <path id="_Compound_Path_" data-name="&lt;Compound Path&gt;" class="cls-1" d="M5619.66,701.049v-1.6l36.03-9.729-1.38-5.192-34.65,9.357v-0.023l-0.85.252-5.82,1.571v32.233H5657V701.049h-37.34Zm26.87,4.031,0.71-2.687h3.96l-0.72,2.687h-3.95Zm-21.34,0,0.72-2.687h3.95l-0.71,2.687h-3.96Zm6.05-2.687h3.96l-0.72,2.687h-3.95Zm5.34,0h3.95l-0.72,2.687h-3.95Zm5.33,0h3.95l-0.71,2.687h-3.95Zm-17.38,0-0.72,2.687h-4.15v-2.687h4.87Zm19.37-10.877-3.82,1.03v-2.782l3.82-1.03v2.782Zm1.34-3.142,3.82-1.032v2.783l-3.82,1.03v-2.781Zm-6.49,4.532-3.82,1.032v-2.783l3.82-1.03v2.781Zm-5.15,1.392-3.82,1.031v-2.783l3.82-1.03V694.3Zm-5.15,1.391-3.82,1.031v-2.783l3.82-1.031v2.783Zm25.61-6.915-3.67.99v-2.781l2.98-.8Zm-30.77,5.523v2.783l-3.63.982V695.28Zm-8.97,6.08v-3.528l4-1.187v9.418h-4v-4.7Zm41.34,26.2h-41.34V706.424h41.34v20.155Zm-3.8-21.5,0.72-2.687h3.08v2.687h-3.8Zm-34.2,5.375h34.67V711.8h-34.67v-1.343Zm0,5.374h34.67v1.344h-34.67v-1.344Zm0,5.375h34.67v1.344h-34.67V721.2Z" transform="translate(-5603 -673.5)"/>
  <path id="_Rectangle_" data-name="&lt;Rectangle&gt;" class="cls-2" d="M5602.99,673.5H5667V738h-64.01V673.5Z" transform="translate(-5603 -673.5)"/>
</svg>
