<svg id="ray-tracing-icon.svg" xmlns="http://www.w3.org/2000/svg" width="64" height="64.5" viewBox="0 0 64 64.5">
  <defs>
    <style>
      .cls-1 {
        fill: #76b900;
      }

      .cls-1, .cls-2 {
        fill-rule: evenodd;
      }

      .cls-2 {
        fill: none;
      }
    </style>
  </defs>
  <path id="_Compound_Path_" data-name="&lt;Compound Path&gt;" class="cls-1" d="M5477.99,299.393a14.109,14.109,0,1,0,14,14.108A14.07,14.07,0,0,0,5477.99,299.393Zm0,1.343a12.576,12.576,0,0,1,7.94,2.829,13.641,13.641,0,0,1,.81,1.99l2.08,1.349a13.667,13.667,0,0,1,.85,1.64l-2.63-1.71a14.253,14.253,0,0,1,.22,1.747l3.05,1.98a12.494,12.494,0,0,1,.22,1.235l-3.22-2.093a12.77,12.77,0,0,1-.11,1.524l3.46,2.249V313.5c0,0.348-.02.69-0.05,1.031l-3.56-2.316q-0.15.7-.36,1.365l3.72,2.423c-0.06.317-.14,0.627-0.23,0.936l-3.81-2.479a13.533,13.533,0,0,1-.57,1.234l3.94,2.559a9.048,9.048,0,0,1-.38.842l-4.01-2.609c-0.24.383-.49,0.753-0.76,1.109l4.12,2.676c-0.16.259-.33,0.51-0.51,0.756l-4.18-2.718c-0.3.343-.62,0.671-0.95,0.982l4.28,2.783c-0.21.23-.42,0.454-0.65,0.668l-4.34-2.821a13.479,13.479,0,0,1-1.16.841l4.44,2.888c-0.26.2-.52,0.392-0.8,0.57l-4.5-2.93a14.391,14.391,0,0,1-1.44.665l4.63,3.008c-0.33.161-.66,0.309-1,0.441l-4.72-3.066a12.793,12.793,0,0,1-1.84.4l4.9,3.18a12.563,12.563,0,0,1-1.31.236l-5.05-3.277c-0.17.006-.34,0.026-0.52,0.026a13.238,13.238,0,0,1-2.21-.2l5.42,3.52a12.385,12.385,0,0,1-2.18-.328l-6.36-4.133c-0.17-.078-0.34-0.167-0.52-0.25A12.773,12.773,0,0,1,5477.99,300.736Zm24.95-18.139-6.28-6.325-4.94,4.981,1.15,1.16-2.67,1.344,5.31,5.349,1.33-2.687,1.16,1.159Zm-6.28-4.425,4.39,4.425-3.05,3.081-4.4-4.425Zm-1.51,8.665-2.7-2.713,1.41-.709,1.99,2Zm-7.16.463h4v4.031h-1.33v-1.737l-8.63,8.692-16.98-14.259L5465.9,283l16.05,13.474,7.77-7.825h-1.73V287.3Zm0,6.718h4v4.031h-1.33v-1.737l-3.33,3.359-0.95-.95,3.34-3.359h-1.73v-1.344Zm-30-17.467a4.7,4.7,0,0,0-2,8.933v3.16h1.33v0.671h1.33v-0.671h1.34v-3.16A4.7,4.7,0,0,0,5457.99,276.551Zm0.66,9.405V287.3h-1.33v-1.344h1.33Zm0.53-1.576,1.04-2.083-1.2-.6-1.03,2.086-1.04-2.086-1.19.6,1.03,2.083A3.335,3.335,0,1,1,5459.18,284.38Z" transform="translate(-5446 -270.5)"/>
  <path id="_Rectangle_" data-name="&lt;Rectangle&gt;" class="cls-2" d="M5445.99,270.5H5510V335h-64.01V270.5Z" transform="translate(-5446 -270.5)"/>
</svg>
