<svg id="reflex-icon.svg" xmlns="http://www.w3.org/2000/svg" width="64" height="64" viewBox="0 0 64 64">
  <defs>
    <style>
      .cls-1 {
        fill: #76b900;
        fill-rule: evenodd;
      }

      .cls-2 {
        fill: none;
      }
    </style>
  </defs>
  <path id="_Compound_Path_" data-name="&lt;Compound Path&gt;" class="cls-1" d="M5659.28,304.867l-4.75-.951,1.32-1.321-0.94-.944-1.3,1.292-0.93-4.676-6.72,6.721a20.685,20.685,0,1,0,6.59,6.609Zm-6.63.033,3.92,0.785-5.46,5.467-3.93-.785-0.77-3.86,0.16-.249,5.29-5.286Zm1.68,17.6a19.352,19.352,0,1,1-9.34-16.542l-0.05.041,0.94,4.677-1.48,1.48a14.118,14.118,0,1,0,.94.943l1.45-1.45,4.76,0.95,0.03-.031A19.33,19.33,0,0,1,5654.33,322.5Zm-19.05.667,4.39-4.391A5.942,5.942,0,0,1,5641,322.5a6,6,0,1,1-6-6,5.923,5.923,0,0,1,3.72,1.333l-4.39,4.391v0.943h0.95Zm4.41-6.3a7.364,7.364,0,1,0,.94.943l3.77-3.769a12.67,12.67,0,1,1-.94-0.943Z" transform="translate(-5603 -290.5)"/>
  <rect id="_Rectangle_" data-name="&lt;Rectangle&gt;" class="cls-2" width="64" height="64"/>
</svg>
